<?xml version="1.0" encoding="UTF-8" standalone="no"?>

<svg
   width="38.000000pt"
   height="38.000000pt"
   viewBox="0 0 166.67313 166.67314"
   version="1.1"
   id="svg1"
   xml:space="preserve"
   inkscape:version="1.3 (0e150ed6c4, 2023-07-21)"
   sodipodi:docname="base.svg"
   xmlns:inkscape="http://www.inkscape.org/namespaces/inkscape"
   xmlns:sodipodi="http://sodipodi.sourceforge.net/DTD/sodipodi-0.dtd"
   xmlns="http://www.w3.org/2000/svg"
   xmlns:svg="http://www.w3.org/2000/svg"><sodipodi:namedview
     id="namedview1"
     pagecolor="#505050"
     bordercolor="#ffffff"
     borderopacity="1"
     inkscape:showpageshadow="0"
     inkscape:pageopacity="0"
     inkscape:pagecheckerboard="1"
     inkscape:deskcolor="#505050"
     inkscape:document-units="mm"
     inkscape:zoom="0.60237599"
     inkscape:cx="-30.711715"
     inkscape:cy="743.72154"
     inkscape:window-width="1920"
     inkscape:window-height="1048"
     inkscape:window-x="0"
     inkscape:window-y="32"
     inkscape:window-maximized="1"
     inkscape:current-layer="layer1" /><defs
     id="defs1" /><g
     inkscape:label="Layer 1"
     inkscape:groupmode="layer"
     id="layer1"
     transform="translate(-11.972612,-80.434164)"><g
       id="g1"
       transform="translate(6.9695592,3.0726582)"><path
         style="opacity:1;fill:#d0d0d0;fill-opacity:1;stroke-width:0.264583"
         d="m 100.60132,216.01667 59.76623,-59.02311 -2.16243,-21.99098 -9.24931,-1.69423 -10.20959,3.70051 -9.06293,-12.5863 -17.84636,-3.34442 -41.279898,-37.100243 -2.017485,39.570693 -12.089252,7.19901 -5.961438,8.5987 -6.657739,11.5646 -20.426312,5.54626 -7.093112,6.54457 7.342808,18.30214 25.995298,14.96915 9.564682,1.01165 -5.439635,40.13359 z"
         id="path4" /><path
         style="opacity:1;fill:#000000;fill-opacity:1;stroke-width:0.264583"
         d="m 140.42256,148.38145 1.16875,-10.63389 5.58076,-1.76268 5.1219,5.0403 0.30079,4.70113 -3.80248,4.36883 z"
         id="path5" /><path
         style="opacity:1;fill:#000000;fill-opacity:1;stroke-width:0.264583"
         d="m 117.17882,134.52575 6.07409,4.84282 -0.13179,-3.64269 -1.76106,-2.11074 z"
         id="path6" /><path
         style="opacity:1;fill:#000000;fill-opacity:1;stroke-width:0.264583"
         d="m 96.16819,172.25392 -1.553186,-6.38459 1.752537,-4.00179 5.741929,-2.84451 6.96574,0.0898 -2.57052,7.53559 -6.08717,3.86265 z"
         id="path7" /></g><circle
       style="opacity:0;fill:#000000;stroke-width:0.264583"
       id="path1"
       cx="95.309181"
       cy="163.77074"
       r="83.336571"
       inkscape:export-filename="path1.svg"
       inkscape:export-xdpi="96"
       inkscape:export-ydpi="96" /></g></svg>
